<svg xmlns="http://www.w3.org/2000/svg" viewBox="0 0 500 500">
    <rect x="0" y="0" width="500" height="500" stroke="red" stroke-width="5" fill="white"></rect>
    <path d="M 0 50 h 75 v 130 H 170 V 20 H 20" stroke="blue" stroke-width="5" fill="none"/>
    <path d="M 100 350 l 150 -300 M 0 0 l 50 50 l 50 20 z" stroke="black" fill="none"/>
    <path d="M 250 50 l 150 300" stroke="black" fill="none"/>
    <path d="M 175 200 l 150 0" stroke="black" fill="none"/>
    <path d="M 10 10 H 90 V 90 H 10 L 10 10" stroke="black" fill="none"/>
    <path d="M 10 10 h 80 v 80 h -80 Z" stroke="red" fill="black" stroke-width="5"/>

<!--    <path d="M 100 350 q 150 -300 300 0" stroke="black" fill="none"/>-->
<!--    <path d="M 10 10 C 20 20, 40 20, 50 10" stroke="black" fill="none"/>-->
<!--    <path d="M 70 10 C 70 20, 110 20, 110 10" stroke="black" fill="none"/>-->
<!--    <path d="M 130 10 C 120 20, 180 20, 170 10" stroke="black" fill="none"/>-->
<!--    <path d="M 10 60 C 20 80, 40 80, 50 60" stroke="black" fill="none"/>-->
<!--    <path d="M 70 60 C 70 80, 110 80, 110 60" stroke="black" fill="none"/>-->
<!--    <path d="M 130 60 C 120 80, 180 80, 170 60" stroke="black" fill="none"/>-->
<!--    <path d="M 10 110 C 20 140, 40 140, 50 110" stroke="black" fill="none"/>-->
<!--    <path d="M 70 110 C 70 140, 110 140, 110 110" stroke="black" fill="none"/>-->
<!--    <path d="M 130 110 C 120 140, 180 140, 170 110" stroke="black" fill="none"/>-->


<!--    <path d="M 10 80 Q 95 10 180 80" stroke="black" fill="none"/>-->


<!--    <path d="M 10 80 Q 52.5 10, 95 80 T 180 80" stroke="black" fill="none"/>-->
<!--    <path d="M 10 315-->
<!--           L 110 215-->
<!--           A 30 50 0 0 1 162.55 162.45-->
<!--           L 172.55 152.45-->
<!--           A 30 50 -45 0 1 215.1 109.9-->
<!--           L 315 10" stroke="black" fill="green" stroke-width="2" fill-opacity="0.5"/>-->
</svg>